<svg width="43" height="42" viewBox="0 0 41 40" fill="none" xmlns="http://www.w3.org/2000/svg">
<path d="M34.1073 6.26826C30.3662 2.61201 25.3841 0.601074 20.0895 0.601074C9.16089 0.601074 0.268032 9.27161 0.268032 19.927C0.268032 23.3308 1.17875 26.6562 2.91089 29.5899L0.0983887 39.6011L10.6073 36.9111C13.5002 38.452 16.7591 39.2616 20.0805 39.2616H20.0895C31.0091 39.2616 40.0984 30.591 40.0984 19.9357C40.0984 14.7734 37.8484 9.92451 34.1073 6.26826ZM20.0895 36.0058C17.1252 36.0058 14.2234 35.231 11.6966 33.7685L11.0984 33.4203L4.86625 35.0134L6.52696 29.085L6.1341 28.4756C4.48232 25.9163 3.61625 22.9651 3.61625 19.927C3.61625 11.0736 11.0091 3.86558 20.0984 3.86558C24.5002 3.86558 28.6341 5.53701 31.7412 8.57518C34.8484 11.6134 36.7591 15.6439 36.7502 19.9357C36.7502 28.7977 29.1698 36.0058 20.0895 36.0058ZM29.1252 23.975C28.6341 23.7312 26.1966 22.5647 25.7412 22.408C25.2859 22.2426 24.9555 22.1642 24.6252 22.6517C24.2948 23.1392 23.3484 24.2187 23.0537 24.5495C22.768 24.8716 22.4734 24.9151 21.9823 24.6714C19.0716 23.2524 17.1609 22.1381 15.2412 18.9259C14.7323 18.0727 15.7502 18.1337 16.6966 16.2881C16.8573 15.966 16.777 15.6875 16.652 15.4437C16.527 15.2 15.5359 12.8234 15.1252 11.8571C14.7234 10.9169 14.3127 11.0475 14.0091 11.0301C13.7234 11.0127 13.393 11.0127 13.0627 11.0127C12.7323 11.0127 12.1966 11.1346 11.7412 11.6134C11.2859 12.1009 10.0091 13.2674 10.0091 15.6439C10.0091 18.0205 11.7859 20.3187 12.027 20.6408C12.277 20.9629 15.518 25.8379 20.4912 27.9359C23.6341 29.2591 24.8662 29.3723 26.4377 29.1459C27.393 29.0067 29.3662 27.9794 29.777 26.8477C30.1877 25.716 30.1877 24.7497 30.0627 24.5495C29.9466 24.3319 29.6162 24.21 29.1252 23.975Z" fill="#FF0000"/>
</svg>
