<svg width="19" height="19" viewBox="0 0 25 25" fill="none" xmlns="http://www.w3.org/2000/svg">
<g clip-path="url(#clip0_15_6)">
<path d="M9.62939 19.0023C4.62939 20.5023 4.62939 16.5023 2.62939 16.0023M16.6294 22.0023V18.1323C16.6669 17.6555 16.6025 17.1761 16.4404 16.7261C16.2783 16.2761 16.0223 15.8657 15.6894 15.5223C18.8294 15.1723 22.1294 13.9823 22.1294 8.52232C22.1291 7.12615 21.5921 5.78352 20.6294 4.77232C21.0853 3.55082 21.053 2.20067 20.5394 1.00232C20.5394 1.00232 19.3594 0.652318 16.6294 2.48232C14.3374 1.86114 11.9214 1.86114 9.62939 2.48232C6.89939 0.652318 5.71939 1.00232 5.71939 1.00232C5.20577 2.20067 5.17354 3.55082 5.62939 4.77232C4.65952 5.79102 4.12192 7.14578 4.12939 8.55232C4.12939 13.9723 7.42939 15.1623 10.5694 15.5523C10.2404 15.8923 9.98666 16.2977 9.8247 16.7422C9.66275 17.1868 9.5962 17.6604 9.62939 18.1323V22.0023" stroke="white" stroke-width="2" stroke-linecap="round" stroke-linejoin="round"/>
</g>
<defs>
<clipPath id="clip0_15_6">
<rect width="24" height="24" fill="white" transform="translate(0.629395 0.00231934)"/>
</clipPath>
</defs>
</svg>
