<svg width="46" height="45" viewBox="0 0 41 40" fill="none" xmlns="http://www.w3.org/2000/svg">
<path d="M13.5004 31.5849C13.5004 31.7462 13.3149 31.8752 13.081 31.8752C12.8149 31.8994 12.6294 31.7704 12.6294 31.5849C12.6294 31.4236 12.8149 31.2946 13.0488 31.2946C13.2907 31.2704 13.5004 31.3994 13.5004 31.5849ZM10.9923 31.222C10.9359 31.3833 11.0971 31.5687 11.3391 31.6171C11.5488 31.6978 11.7907 31.6171 11.8391 31.4558C11.8875 31.2946 11.7342 31.1091 11.4923 31.0365C11.2826 30.98 11.0488 31.0607 10.9923 31.222ZM14.5568 31.0849C14.323 31.1413 14.1617 31.2946 14.1859 31.48C14.21 31.6413 14.4197 31.7462 14.6617 31.6897C14.8955 31.6333 15.0568 31.48 15.0326 31.3187C15.0084 31.1655 14.7907 31.0607 14.5568 31.0849ZM19.8633 0.182129C8.67779 0.182129 0.121338 8.67393 0.121338 19.8592C0.121338 28.8027 5.75037 36.4558 13.7907 39.1493C14.823 39.3348 15.1859 38.6977 15.1859 38.1735C15.1859 37.6735 15.1617 34.9155 15.1617 33.2219C15.1617 33.2219 9.5165 34.4316 8.33102 30.8188C8.33102 30.8188 7.41166 28.472 6.08908 27.8672C6.08908 27.8672 4.24231 26.6011 6.21811 26.6253C6.21811 26.6253 8.22618 26.7866 9.33101 28.7059C11.0971 31.8187 14.0568 30.9236 15.21 30.3913C15.3955 29.101 15.9197 28.2059 16.5004 27.6736C11.9923 27.1736 7.44392 26.5204 7.44392 18.7625C7.44392 16.5448 8.05682 15.4319 9.34714 14.0126C9.13747 13.4884 8.45198 11.3271 9.55682 8.53684C11.2423 8.01265 15.1213 10.7142 15.1213 10.7142C16.7342 10.2626 18.4681 10.0288 20.1859 10.0288C21.9036 10.0288 23.6375 10.2626 25.2504 10.7142C25.2504 10.7142 29.1294 8.00459 30.8149 8.53684C31.9197 11.3352 31.2342 13.4884 31.0246 14.0126C32.3149 15.44 33.1052 16.5528 33.1052 18.7625C33.1052 26.5446 28.3552 27.1656 23.8471 27.6736C24.5891 28.3107 25.2181 29.5204 25.2181 31.4155C25.2181 34.1332 25.1939 37.4961 25.1939 38.1574C25.1939 38.6815 25.5649 39.3186 26.5891 39.1331C34.6536 36.4558 40.1213 28.8027 40.1213 19.8592C40.1213 8.67393 31.0488 0.182129 19.8633 0.182129ZM7.96005 27.9962C7.85521 28.0769 7.8794 28.2623 8.0165 28.4156C8.14553 28.5446 8.33101 28.601 8.43585 28.4962C8.54069 28.4156 8.5165 28.2301 8.3794 28.0769C8.25037 27.9478 8.06489 27.8914 7.96005 27.9962ZM7.08908 27.343C7.03263 27.4478 7.11327 27.5769 7.27456 27.6575C7.4036 27.7382 7.56489 27.714 7.62134 27.6011C7.67779 27.4962 7.59714 27.3672 7.43585 27.2866C7.27456 27.2382 7.14553 27.2624 7.08908 27.343ZM9.70198 30.2139C9.57295 30.3188 9.62134 30.5607 9.80682 30.7139C9.99231 30.8994 10.2262 30.9236 10.331 30.7946C10.4359 30.6897 10.3875 30.4478 10.2262 30.2946C10.0488 30.1091 9.80682 30.0849 9.70198 30.2139ZM8.78263 29.0285C8.6536 29.1091 8.6536 29.3188 8.78263 29.5043C8.91166 29.6897 9.1294 29.7704 9.23424 29.6897C9.36327 29.5849 9.36327 29.3752 9.23424 29.1897C9.12134 29.0043 8.91166 28.9236 8.78263 29.0285Z" fill="#D40B0B"/>
</svg>
