<svg width="45" height="44" viewBox="0 0 32 32" fill="none" xmlns="http://www.w3.org/2000/svg">
<path d="M16 12C14.9391 12 13.9217 12.4214 13.1716 13.1716C12.4214 13.9217 12 14.9391 12 16C12 17.0609 12.4214 18.0783 13.1716 18.8284C13.9217 19.5786 14.9391 20 16 20C17.0609 20 18.0783 19.5786 18.8284 18.8284C19.5786 18.0783 20 17.0609 20 16C20 14.9391 19.5786 13.9217 18.8284 13.1716C18.0783 12.4214 17.0609 12 16 12ZM16 9.33333C17.7681 9.33333 19.4638 10.0357 20.714 11.286C21.9643 12.5362 22.6667 14.2319 22.6667 16C22.6667 17.7681 21.9643 19.4638 20.714 20.714C19.4638 21.9643 17.7681 22.6667 16 22.6667C14.2319 22.6667 12.5362 21.9643 11.286 20.714C10.0357 19.4638 9.33333 17.7681 9.33333 16C9.33333 14.2319 10.0357 12.5362 11.286 11.286C12.5362 10.0357 14.2319 9.33333 16 9.33333ZM24.6667 9C24.6667 9.44203 24.4911 9.86595 24.1785 10.1785C23.866 10.4911 23.442 10.6667 23 10.6667C22.558 10.6667 22.1341 10.4911 21.8215 10.1785C21.5089 9.86595 21.3333 9.44203 21.3333 9C21.3333 8.55797 21.5089 8.13405 21.8215 7.82149C22.1341 7.50893 22.558 7.33333 23 7.33333C23.442 7.33333 23.866 7.50893 24.1785 7.82149C24.4911 8.13405 24.6667 8.55797 24.6667 9ZM16 5.33333C12.7013 5.33333 12.1627 5.34267 10.628 5.41067C9.58267 5.46 8.88133 5.6 8.23067 5.85333C7.652 6.07733 7.23467 6.34533 6.79067 6.79067C6.37334 7.19387 6.05247 7.68611 5.852 8.23067C5.59867 8.884 5.45867 9.584 5.41067 10.628C5.34133 12.1 5.33333 12.6147 5.33333 16C5.33333 19.2987 5.34267 19.8373 5.41067 21.372C5.46 22.416 5.6 23.1187 5.852 23.768C6.07867 24.348 6.34533 24.7653 6.788 25.208C7.23733 25.656 7.65467 25.924 8.228 26.1453C8.88667 26.4 9.588 26.5413 10.628 26.5893C12.1 26.6587 12.6147 26.6667 16 26.6667C19.2987 26.6667 19.8373 26.6573 21.372 26.5893C22.4147 26.54 23.1173 26.4 23.768 26.148C24.3453 25.9227 24.7653 25.6547 25.208 25.212C25.6573 24.7627 25.9253 24.3453 26.1467 23.772C26.4 23.1147 26.5413 22.412 26.5893 21.372C26.6587 19.9 26.6667 19.3853 26.6667 16C26.6667 12.7013 26.6573 12.1627 26.5893 10.628C26.54 9.58534 26.4 8.88133 26.1467 8.23067C25.9457 7.68667 25.6254 7.19462 25.2093 6.79067C24.8063 6.37313 24.314 6.05222 23.7693 5.852C23.116 5.59867 22.4147 5.45867 21.372 5.41067C19.9 5.34133 19.3853 5.33333 16 5.33333ZM16 2.66667C19.6227 2.66667 20.0747 2.68 21.496 2.74667C22.916 2.81333 23.8827 3.036 24.7333 3.36667C25.6133 3.70533 26.3547 4.164 27.096 4.904C27.774 5.57053 28.2986 6.37679 28.6333 7.26667C28.9627 8.116 29.1867 9.084 29.2533 10.504C29.316 11.9253 29.3333 12.3773 29.3333 16C29.3333 19.6227 29.32 20.0747 29.2533 21.496C29.1867 22.916 28.9627 23.8827 28.6333 24.7333C28.2996 25.6237 27.7748 26.4302 27.096 27.096C26.4293 27.7738 25.6231 28.2983 24.7333 28.6333C23.884 28.9627 22.916 29.1867 21.496 29.2533C20.0747 29.316 19.6227 29.3333 16 29.3333C12.3773 29.3333 11.9253 29.32 10.504 29.2533C9.084 29.1867 8.11733 28.9627 7.26667 28.6333C6.37644 28.2993 5.57004 27.7746 4.904 27.096C4.22588 26.4296 3.70124 25.6233 3.36667 24.7333C3.036 23.884 2.81333 22.916 2.74667 21.496C2.684 20.0747 2.66667 19.6227 2.66667 16C2.66667 12.3773 2.68 11.9253 2.74667 10.504C2.81333 9.08267 3.036 8.11733 3.36667 7.26667C3.70032 6.37624 4.22507 5.56976 4.904 4.904C5.57023 4.22564 6.37657 3.70097 7.26667 3.36667C8.11733 3.036 9.08267 2.81333 10.504 2.74667C11.9253 2.684 12.3773 2.66667 16 2.66667Z" fill="#FF0000"/>
</svg>
