<svg width="44" height="43" viewBox="0 0 46 45" fill="none" xmlns="http://www.w3.org/2000/svg">
<path d="M23.3229 11.6506C16.9381 11.6506 11.788 16.6873 11.788 22.9316C11.788 29.176 16.9381 34.2127 23.3229 34.2127C29.7077 34.2127 34.8577 29.176 34.8577 22.9316C34.8577 16.6873 29.7077 11.6506 23.3229 11.6506ZM23.3229 30.2658C19.1968 30.2658 15.8237 26.9767 15.8237 22.9316C15.8237 18.8866 19.1868 15.5975 23.3229 15.5975C27.459 15.5975 30.8221 18.8866 30.8221 22.9316C30.8221 26.9767 27.4489 30.2658 23.3229 30.2658ZM38.02 11.1891C38.02 12.652 36.8154 13.8204 35.3296 13.8204C33.8338 13.8204 32.6391 12.6422 32.6391 11.1891C32.6391 9.73606 33.8438 8.55788 35.3296 8.55788C36.8154 8.55788 38.02 9.73606 38.02 11.1891ZM45.6598 13.8597C45.4891 10.335 44.6659 7.2128 42.0256 4.64044C39.3954 2.06809 36.203 1.263 32.599 1.08628C28.8845 0.880095 17.7512 0.880095 14.0368 1.08628C10.4428 1.25318 7.25039 2.05827 4.61012 4.63063C1.96985 7.20298 1.15669 10.3251 0.975986 13.8499C0.765166 17.4826 0.765166 28.3709 0.975986 32.0036C1.14665 35.5283 1.96985 38.6505 4.61012 41.2228C7.25039 43.7952 10.4328 44.6003 14.0368 44.777C17.7512 44.9832 28.8845 44.9832 32.599 44.777C36.203 44.6101 39.3954 43.805 42.0256 41.2228C44.6559 38.6505 45.4791 35.5283 45.6598 32.0036C45.8706 28.3709 45.8706 17.4924 45.6598 13.8597ZM40.8611 35.9014C40.078 37.8258 38.5622 39.3083 36.5845 40.0839C33.6229 41.2327 26.5956 40.9676 23.3229 40.9676C20.0502 40.9676 13.0128 41.2228 10.0613 40.0839C8.09367 39.3181 6.57777 37.8356 5.78469 35.9014C4.61012 33.0051 4.88117 26.1324 4.88117 22.9316C4.88117 19.7309 4.62016 12.8484 5.78469 9.96188C6.56773 8.03752 8.08363 6.55498 10.0613 5.77935C13.0228 4.63062 20.0502 4.89571 23.3229 4.89571C26.5956 4.89571 33.633 4.64044 36.5845 5.77935C38.5521 6.54516 40.068 8.0277 40.8611 9.96188C42.0357 12.8582 41.7646 19.7309 41.7646 22.9316C41.7646 26.1324 42.0357 33.0149 40.8611 35.9014Z" fill="#D40B0B"/>
</svg>
