<svg width="40" height="40" viewBox="0 0 40 40" fill="none" xmlns="http://www.w3.org/2000/svg">
<path d="M36.3817 0.5H3.61832C1.62 0.5 0 2.0795 0 4.02787V35.972C0 37.9205 1.62 39.5 3.61832 39.5H36.3816C38.38 39.5 40 37.9205 40 35.972V4.02787C40 2.0795 38.38 0.5 36.3817 0.5ZM12.3777 34.1752C12.3777 34.7422 11.9063 35.2018 11.3247 35.2018H6.84241C6.26084 35.2018 5.78942 34.7422 5.78942 34.1752V15.8553C5.78942 15.2882 6.26084 14.8286 6.84241 14.8286H11.3247C11.9063 14.8286 12.3777 15.2882 12.3777 15.8553V34.1752ZM9.08356 13.1017C6.73183 13.1017 4.82534 11.2429 4.82534 8.94993C4.82534 6.657 6.73183 4.79817 9.08356 4.79817C11.4353 4.79817 13.3418 6.657 13.3418 8.94993C13.3418 11.2429 11.4354 13.1017 9.08356 13.1017ZM35.8021 34.2579C35.8021 34.7792 35.3686 35.2018 34.8339 35.2018H30.0241C29.4894 35.2018 29.0559 34.7792 29.0559 34.2579V25.6648C29.0559 24.3829 29.4416 20.0475 25.62 20.0475C22.6557 20.0475 22.0544 23.0149 21.9337 24.3467V34.2579C21.9337 34.7792 21.5003 35.2018 20.9655 35.2018H16.3136C15.779 35.2018 15.3454 34.7792 15.3454 34.2579V15.7726C15.3454 15.2513 15.779 14.8286 16.3136 14.8286H20.9655C21.5002 14.8286 21.9337 15.2513 21.9337 15.7726V17.3709C23.0329 15.7626 24.6664 14.5212 28.1444 14.5212C35.8462 14.5212 35.8021 21.5367 35.8021 25.3914V34.2579Z" fill="#FF0000"/>
</svg>
