<svg width="40" height="40" viewBox="0 0 41 41" fill="none" xmlns="http://www.w3.org/2000/svg">
<path d="M37.9375 0.415039H3.64289C2.07146 0.415039 0.794678 1.70968 0.794678 3.29897V37.5311C0.794678 39.1204 2.07146 40.415 3.64289 40.415H37.9375C39.509 40.415 40.7947 39.1204 40.7947 37.5311V3.29897C40.7947 1.70968 39.509 0.415039 37.9375 0.415039ZM12.884 34.7008H6.95539V15.6115H12.8929V34.7008H12.884ZM9.91968 13.0043C8.01789 13.0043 6.48218 11.4597 6.48218 9.56682C6.48218 7.67397 8.01789 6.12932 9.91968 6.12932C11.8125 6.12932 13.3572 7.67397 13.3572 9.56682C13.3572 11.4686 11.8215 13.0043 9.91968 13.0043ZM35.1072 34.7008H29.1786V25.415C29.1786 23.2008 29.134 20.3525 26.0982 20.3525C23.009 20.3525 22.5357 22.7633 22.5357 25.2543V34.7008H16.6072V15.6115H22.2947V18.2186H22.375C23.1697 16.7186 25.1072 15.1383 27.9911 15.1383C33.9911 15.1383 35.1072 19.0936 35.1072 24.2365V34.7008Z" fill="#D40B0B"/>
</svg>
