<svg width="45" height="44" viewBox="0 0 46 45" fill="none" xmlns="http://www.w3.org/2000/svg">
<path d="M38.3863 6.67402C34.1776 2.54902 28.5726 0.280273 22.6162 0.280273C10.3215 0.280273 0.317069 10.0624 0.317069 22.0838C0.317069 25.924 1.34162 29.6758 3.29028 32.9856L0.126221 44.2803L11.9488 41.2455C15.2032 42.9838 18.8695 43.8972 22.6061 43.8972H22.6162C34.9008 43.8972 45.1262 34.1151 45.1262 22.0937C45.1262 16.2696 42.595 10.799 38.3863 6.67402ZM22.6162 40.224C19.2814 40.224 16.0168 39.3499 13.1742 37.6999L12.5012 37.3071L5.49006 39.1044L7.35836 32.416L6.9164 31.7285C5.05814 28.841 4.08381 25.5115 4.08381 22.0838C4.08381 12.0955 12.4008 3.96331 22.6262 3.96331C27.5782 3.96331 32.2289 5.84902 35.7244 9.2767C39.22 12.7044 41.3695 17.2517 41.3595 22.0937C41.3595 32.0919 32.8316 40.224 22.6162 40.224ZM32.7814 26.6508C32.2289 26.3758 29.4867 25.0597 28.9744 24.883C28.4622 24.6963 28.0905 24.608 27.7189 25.158C27.3472 25.708 26.2825 26.9258 25.951 27.299C25.6296 27.6624 25.2981 27.7115 24.7456 27.4365C21.4711 25.8356 19.3215 24.5785 17.1619 20.9544C16.5894 19.9919 17.7345 20.0606 18.7992 17.9785C18.98 17.6151 18.8896 17.3008 18.749 17.0258C18.6084 16.7508 17.4934 14.0696 17.0314 12.9794C16.5793 11.9187 16.1173 12.066 15.7758 12.0463C15.4543 12.0267 15.0827 12.0267 14.711 12.0267C14.3394 12.0267 13.7367 12.1642 13.2244 12.7044C12.7122 13.2544 11.2758 14.5705 11.2758 17.2517C11.2758 19.933 13.2747 22.5258 13.5459 22.8892C13.8271 23.2526 17.4733 28.7526 23.0682 31.1196C26.6039 32.6124 27.9901 32.7401 29.7579 32.4847C30.8327 32.3276 33.0526 31.1687 33.5146 29.8919C33.9767 28.6151 33.9767 27.5249 33.836 27.299C33.7055 27.0535 33.3338 26.916 32.7814 26.6508Z" fill="#D40B0B"/>
</svg>
